<svg width="190" height="90" viewBox="0 0 190 90" fill="none" xmlns="http://www.w3.org/2000/svg">
<path d="M59.8491 88.0986C57.9454 88.0986 56.3074 87.7113 54.935 86.9365C53.5626 86.1618 52.5056 85.0605 51.7641 83.6328C51.0226 82.194 50.6518 80.4951 50.6518 78.5361C50.6518 76.6325 51.017 74.9613 51.7475 73.5225C52.489 72.0837 53.5294 70.9603 54.8686 70.1523C56.2078 69.3444 57.7849 68.9404 59.6 68.9404C61.2381 68.9404 62.7156 69.2891 64.0327 69.9863C65.3608 70.6836 66.4122 71.7295 67.187 73.124C67.9728 74.5186 68.3657 76.2673 68.3657 78.3701V79.7646H55.7153C55.7706 81.1702 56.1801 82.2715 56.9438 83.0684C57.7075 83.8652 58.7036 84.2637 59.9321 84.2637C60.7843 84.2637 61.5148 84.0811 62.1235 83.7158C62.7433 83.3506 63.186 82.8193 63.4516 82.1221L68.1996 82.4375C67.8344 84.1419 66.9213 85.5143 65.4604 86.5547C64.0105 87.584 62.1401 88.0986 59.8491 88.0986ZM55.7485 76.5938H63.435C63.3133 75.4206 62.937 74.4909 62.3061 73.8047C61.6752 73.1185 60.7898 72.7754 59.6498 72.7754C58.4988 72.7754 57.5857 73.1351 56.9106 73.8545C56.2465 74.5628 55.8592 75.4759 55.7485 76.5938ZM77.2389 77.0088V87.7334H72.0924V69.1729H77.1559V72.4766H77.3385C77.759 71.3919 78.4286 70.5342 79.3473 69.9033C80.2659 69.2614 81.4114 68.9404 82.7838 68.9404C84.7206 68.9404 86.2701 69.5658 87.4322 70.8164C88.6054 72.056 89.192 73.7604 89.192 75.9297V87.7334H84.0455V76.8428C84.0455 75.7028 83.7522 74.8118 83.1656 74.1699C82.5901 73.528 81.7877 73.207 80.7584 73.207C79.718 73.207 78.8713 73.5446 78.2184 74.2197C77.5654 74.8838 77.2389 75.8135 77.2389 77.0088ZM103.511 69.1729V73.0576H99.991V82.0225C99.991 83.2288 100.578 83.832 101.751 83.832C101.95 83.832 102.166 83.8154 102.398 83.7822C102.642 83.749 102.852 83.7103 103.029 83.666L103.843 87.5176C102.747 87.8385 101.684 87.999 100.655 87.999C98.8178 87.999 97.3901 87.5342 96.3718 86.6045C95.3647 85.6748 94.8611 84.3743 94.8611 82.7031V73.0576H92.3377V69.1729H94.8611V64.7568H99.991V69.1729H103.511ZM112.5 88.082C110.729 88.082 109.257 87.6227 108.084 86.7041C106.922 85.7744 106.341 84.391 106.341 82.5537C106.341 81.1702 106.662 80.0856 107.304 79.2998C107.957 78.5029 108.814 77.9219 109.877 77.5566C110.939 77.1803 112.079 76.9368 113.297 76.8262C114.913 76.6712 116.064 76.5107 116.75 76.3447C117.447 76.1676 117.796 75.7803 117.796 75.1826V75.0996C117.796 74.3359 117.552 73.7438 117.065 73.3232C116.578 72.9027 115.876 72.6924 114.957 72.6924C114.038 72.6924 113.286 72.8916 112.699 73.29C112.124 73.6885 111.742 74.1976 111.554 74.8174L106.872 74.0703C107.315 72.4544 108.244 71.1982 109.661 70.3018C111.089 69.3942 112.86 68.9404 114.974 68.9404C116.346 68.9404 117.635 69.1562 118.842 69.5879C120.059 70.0195 121.044 70.7002 121.797 71.6299C122.549 72.5485 122.926 73.7438 122.926 75.2158V87.7334H118.061V85.1436H117.912C117.458 86.0179 116.783 86.7262 115.887 87.2686C115.001 87.8109 113.872 88.082 112.5 88.082ZM111.238 82.3877C111.238 83.096 111.493 83.6328 112.002 83.998C112.522 84.3522 113.175 84.5293 113.961 84.5293C115.09 84.5293 116.014 84.2028 116.733 83.5498C117.464 82.8968 117.829 82.0833 117.829 81.1094V79.1338C117.63 79.2666 117.314 79.3883 116.883 79.499C116.462 79.6097 116.014 79.7038 115.538 79.7812C115.062 79.8477 114.636 79.9085 114.26 79.9639C113.352 80.0967 112.622 80.3568 112.068 80.7441C111.515 81.1204 111.238 81.6683 111.238 82.3877ZM132.546 62.9971V87.7334H127.399V62.9971H132.546ZM142.15 62.9971V87.7334H137.003V62.9971H142.15ZM146.607 87.7334V69.1729H151.753V87.7334H146.607ZM149.18 66.7988C148.416 66.7988 147.758 66.5443 147.204 66.0352C146.662 65.526 146.391 64.9118 146.391 64.1924C146.391 63.473 146.662 62.8643 147.204 62.3662C147.758 61.8571 148.416 61.6025 149.18 61.6025C149.944 61.6025 150.597 61.8571 151.139 62.3662C151.692 62.8643 151.969 63.473 151.969 64.1924C151.969 64.9118 151.692 65.526 151.139 66.0352C150.597 66.5443 149.944 66.7988 149.18 66.7988ZM164.578 88.0986C162.674 88.0986 161.042 87.6947 159.68 86.8867C158.319 86.0788 157.273 84.9554 156.543 83.5166C155.823 82.0778 155.463 80.4176 155.463 78.5361C155.463 76.6325 155.829 74.9613 156.559 73.5225C157.301 72.0837 158.352 70.9603 159.713 70.1523C161.075 69.3444 162.691 68.9404 164.561 68.9404C166.177 68.9404 167.594 69.2337 168.811 69.8203C170.029 70.4069 170.991 71.2314 171.7 72.2939C172.408 73.3564 172.795 74.6071 172.862 76.0459H168.014C167.87 75.1273 167.511 74.3857 166.935 73.8213C166.36 73.2458 165.596 72.958 164.644 72.958C163.449 72.958 162.491 73.4395 161.772 74.4023C161.053 75.3542 160.693 76.71 160.693 78.4697C160.693 80.2406 161.047 81.6185 161.755 82.6035C162.475 83.5885 163.438 84.0811 164.644 84.0811C165.53 84.0811 166.277 83.8044 166.885 83.251C167.494 82.6976 167.87 81.9229 168.014 80.9268H172.862C172.784 82.3434 172.403 83.5941 171.716 84.6787C171.03 85.7523 170.078 86.5934 168.861 87.2021C167.655 87.7998 166.227 88.0986 164.578 88.0986Z" fill="white"/>
<path d="M12.7402 87.7337C26.4436 35.3145 54.5607 8.66449 70.6504 13.5797C86.7402 18.495 80.7402 37.7336 93.2402 37.7336C107.562 37.7336 116.826 11.3638 134.533 13.5797C152.24 15.7956 143.74 43.7336 176.24 26.2336" stroke="#F7FFB3" stroke-opacity="0.4" stroke-width="16"/>
<path d="M7.74023 82.7337C21.4436 30.3145 49.5607 3.66449 65.6504 8.57974C81.7402 13.495 75.7402 32.7336 88.2402 32.7336C102.562 32.7336 111.826 6.36383 129.533 8.57974C147.24 10.7956 138.74 38.7336 171.24 21.2336" stroke="#F1FF79" stroke-width="16"/>
</svg>

